<svg xmlns="http://www.w3.org/2000/svg" width="308.171" height="80.395" viewBox="0 0 308.171 80.395"><g transform="translate(-54.114 -117.704)"><g transform="translate(54.114 180.741)"><path d="M54.114,191.164l7.629-17.113h1.246l7.628,17.113h-1.37l-6.918-15.5-6.919,15.5Z" transform="translate(-54.114 -173.928)" fill="#fff"/><path d="M73.923,174.051h1.246V190.04h9.853v1.124h-11.1Z" transform="translate(-51.719 -173.928)" fill="#fff"/><path d="M87.537,182.62a8.547,8.547,0,0,1,8.874-8.679,8.156,8.156,0,0,1,6.088,2.372l-.782.807a7.158,7.158,0,0,0-5.255-2.029,7.531,7.531,0,1,0,0,15.059,7.185,7.185,0,0,0,5.255-2.053l.782.807a8.173,8.173,0,0,1-6.088,2.4A8.547,8.547,0,0,1,87.537,182.62Z" transform="translate(-50.073 -173.941)" fill="#fff"/><path d="M121.173,174.051v17.113h-1.248v-8.141H108.483v8.141h-1.246V174.051h1.246v7.872h11.442v-7.872Z" transform="translate(-47.691 -173.928)" fill="#fff"/><path d="M139.423,190.04v1.124H127.614V174.051h11.442v1.124h-10.2v6.748h9.12v1.1h-9.12v7.017Z" transform="translate(-45.227 -173.928)" fill="#fff"/><path d="M161.012,191.164l-.025-14.644-7.164,12.37h-.611l-7.164-12.322v14.6h-1.222V174.051h1.051l7.652,13.226,7.652-13.226h1.027l.024,17.113Z" transform="translate(-43.146 -173.928)" fill="#fff"/><path d="M173.891,185.272v5.891h-1.248v-5.891l-6.894-11.221h1.369l6.185,10.071,6.185-10.071h1.3Z" transform="translate(-40.616 -173.928)" fill="#fff"/><path d="M206.752,174.051l-7.628,17.113h-1.246l-7.629-17.113h1.371l6.918,15.5,6.919-15.5Z" transform="translate(-37.654 -173.928)" fill="#fff"/><path d="M213.886,174.051l-7.628,17.113h-1.246l-7.629-17.113h1.37l6.919,15.5,6.919-15.5Z" transform="translate(-36.792 -173.928)" fill="#fff"/><path d="M229.874,190.04v1.124H218.065V174.051h11.442v1.124h-10.2v6.748h9.12v1.1h-9.12v7.017Z" transform="translate(-34.291 -173.928)" fill="#fff"/><path d="M235.278,174.051h1.246V190.04h9.854v1.124h-11.1Z" transform="translate(-32.21 -173.928)" fill="#fff"/><path d="M250.659,174.051h1.246V190.04h9.853v1.124h-11.1Z" transform="translate(-30.35 -173.928)" fill="#fff"/><path d="M279.975,174.051v17.113h-1.027L267.287,176.3v14.864h-1.248V174.051h1.053l11.637,14.864V174.051Z" transform="translate(-28.491 -173.928)" fill="#fff"/><path d="M298.226,190.04v1.124H286.417V174.051h11.442v1.124H287.665v6.748h9.119v1.1h-9.119v7.017Z" transform="translate(-26.027 -173.928)" fill="#fff"/><path d="M302.081,188.977l.563-.929a8.136,8.136,0,0,0,5.648,2.151c3.422,0,4.938-1.491,4.938-3.349,0-5.134-10.683-2.054-10.683-8.361,0-2.421,1.858-4.548,6.063-4.548a9.182,9.182,0,0,1,5.158,1.54l-.464,1a8.463,8.463,0,0,0-4.694-1.443c-3.325,0-4.817,1.541-4.817,3.423,0,5.134,10.685,2.1,10.685,8.313,0,2.42-1.932,4.523-6.161,4.523A8.774,8.774,0,0,1,302.081,188.977Z" transform="translate(-24.133 -173.941)" fill="#fff"/><path d="M317.985,188.977l.563-.929A8.136,8.136,0,0,0,324.2,190.2c3.422,0,4.939-1.491,4.939-3.349,0-5.134-10.684-2.054-10.684-8.361,0-2.421,1.858-4.548,6.063-4.548a9.182,9.182,0,0,1,5.158,1.54l-.464,1a8.463,8.463,0,0,0-4.694-1.443c-3.325,0-4.817,1.541-4.817,3.423,0,5.134,10.685,2.1,10.685,8.313,0,2.42-1.932,4.523-6.16,4.523A8.774,8.774,0,0,1,317.985,188.977Z" transform="translate(-22.21 -173.941)" fill="#fff"/></g><g transform="translate(133.751 117.704)"><path d="M238.963,155.475,217.156,117.7l-21.807,37.771Zm-13.546-18.886H208.9l8.26-14.306Zm1.322,2.29L235,153.186H199.315l8.26-14.307ZM274.058,117.7H230.443l21.807,37.771Zm-39.65,2.289h35.685l-17.843,30.9ZM125.161,155.475h43.615L146.968,117.7Zm39.65-2.289H129.126l17.843-30.9ZM160.255,117.7l21.806,37.771L203.869,117.7Zm22.952,2.289h16.7l-16.7,28.921V119.993Zm-2.289,28.922-16.7-28.922h16.7v28.922Z" transform="translate(-125.161 -117.704)" fill="#fff"/></g></g></svg>