<svg xmlns="http://www.w3.org/2000/svg" xmlns:xlink="http://www.w3.org/1999/xlink" width="148.896" height="37.771" viewBox="0 0 148.896 37.771"><defs><linearGradient id="a" y1="0.5" x2="1" y2="0.5" gradientUnits="objectBoundingBox"><stop offset="0" stop-color="#0b9fb8"/><stop offset="1" stop-color="#eda555"/></linearGradient></defs><g transform="translate(-133.751 -117.704)"><g transform="translate(133.751 117.704)"><path d="M238.963,155.475,217.156,117.7l-21.807,37.771Zm-13.546-18.886H208.9l8.26-14.306Zm1.322,2.29L235,153.186H199.315l8.26-14.307ZM274.058,117.7H230.443l21.807,37.771Zm-39.65,2.289h35.685l-17.843,30.9ZM125.161,155.475h43.615L146.968,117.7Zm39.65-2.289H129.126l17.843-30.9ZM160.255,117.7l21.806,37.771L203.869,117.7Zm22.952,2.289h16.7l-16.7,28.921V119.993Zm-2.289,28.922-16.7-28.922h16.7v28.922Z" transform="translate(-125.161 -117.704)" fill="url(#a)"/></g></g></svg>